<?xml version="1.0" encoding="UTF-8" standalone="no"?>
<!DOCTYPE svg PUBLIC "-//W3C//DTD SVG 1.1//EN"
 "http://www.w3.org/Graphics/SVG/1.1/DTD/svg11.dtd">
<!-- Generated by graphviz version 13.1.2 (20250808.2320)
 -->
<!-- Title: packages_arbeitsplanungstool Pages: 1 -->
<svg width="852pt" height="116pt"
 viewBox="0.00 0.00 852.00 116.00" xmlns="http://www.w3.org/2000/svg" xmlns:xlink="http://www.w3.org/1999/xlink">
<g id="graph0" class="graph" transform="scale(1 1) rotate(0) translate(4 112)">
<title>packages_arbeitsplanungstool</title>
<polygon fill="white" stroke="none" points="-4,4 -4,-112 848.12,-112 848.12,4 -4,4"/>
<!-- arbeitsplaner -->
<g id="node1" class="node">
<title>arbeitsplaner</title>
<polygon fill="none" stroke="black" points="85.75,-36 0,-36 0,0 85.75,0 85.75,-36"/>
<text xml:space="preserve" text-anchor="start" x="8" y="-12.95" font-family="Times,serif" font-size="14.00">arbeitsplaner</text>
</g>
<!-- arbeitsplaner.app -->
<g id="node2" class="node">
<title>arbeitsplaner.app</title>
<polygon fill="none" stroke="black" points="212,-36 103.75,-36 103.75,0 212,0 212,-36"/>
<text xml:space="preserve" text-anchor="start" x="111.75" y="-12.95" font-family="Times,serif" font-size="14.00">arbeitsplaner.app</text>
</g>
<!-- arbeitsplaner.ui.main_window -->
<g id="node6" class="node">
<title>arbeitsplaner.ui.main_window</title>
<polygon fill="none" stroke="black" points="248.38,-108 67.38,-108 67.38,-72 248.38,-72 248.38,-108"/>
<text xml:space="preserve" text-anchor="start" x="75.38" y="-84.95" font-family="Times,serif" font-size="14.00">arbeitsplaner.ui.main_window</text>
</g>
<!-- arbeitsplaner.app&#45;&gt;arbeitsplaner.ui.main_window -->
<g id="edge1" class="edge">
<title>arbeitsplaner.app&#45;&gt;arbeitsplaner.ui.main_window</title>
<path fill="none" stroke="black" d="M157.88,-36.3C157.88,-43.68 157.88,-52.48 157.88,-60.75"/>
<polygon fill="black" stroke="black" points="157.88,-70.68 153.38,-60.68 157.88,-66.9 157.88,-60.68 157.88,-60.68 157.88,-60.68 157.88,-66.9 162.38,-60.68 157.88,-70.68"/>
</g>
<!-- arbeitsplaner.core -->
<g id="node3" class="node">
<title>arbeitsplaner.core</title>
<polygon fill="none" stroke="black" points="341.88,-36 229.88,-36 229.88,0 341.88,0 341.88,-36"/>
<text xml:space="preserve" text-anchor="start" x="237.88" y="-12.95" font-family="Times,serif" font-size="14.00">arbeitsplaner.core</text>
</g>
<!-- arbeitsplaner.core.cadservice -->
<g id="node4" class="node">
<title>arbeitsplaner.core.cadservice</title>
<polygon fill="none" stroke="black" points="532.25,-36 359.5,-36 359.5,0 532.25,0 532.25,-36"/>
<text xml:space="preserve" text-anchor="start" x="367.5" y="-12.95" font-family="Times,serif" font-size="14.00">arbeitsplaner.core.cadservice</text>
</g>
<!-- arbeitsplaner.ui -->
<g id="node5" class="node">
<title>arbeitsplaner.ui</title>
<polygon fill="none" stroke="black" points="649.5,-36 550.25,-36 550.25,0 649.5,0 649.5,-36"/>
<text xml:space="preserve" text-anchor="start" x="558.25" y="-12.95" font-family="Times,serif" font-size="14.00">arbeitsplaner.ui</text>
</g>
<!-- arbeitsplaner.ui.voxel_widget -->
<g id="node7" class="node">
<title>arbeitsplaner.ui.voxel_widget</title>
<polygon fill="none" stroke="black" points="844.12,-36 667.62,-36 667.62,0 844.12,0 844.12,-36"/>
<text xml:space="preserve" text-anchor="start" x="675.62" y="-12.95" font-family="Times,serif" font-size="14.00">arbeitsplaner.ui.voxel_widget</text>
</g>
</g>
</svg>
